<?xml version="1.0" encoding="UTF-8" standalone="no"?>
<!-- Created with Inkscape (http://www.inkscape.org/) -->

<svg
   width="16mm"
   height="16mm"
   viewBox="0 0 16 16"
   version="1.1"
   id="svg5"
   xmlns="http://www.w3.org/2000/svg"
   xmlns:svg="http://www.w3.org/2000/svg">

  <rect
     style="fill:#0e273c;fill-opacity:1;stroke-width:0.274285"
     id="rect1032"
     width="16"
     height="16"
     x="0"
     y="0" />
  <g
     id="layer1"
     transform="translate(0.71078679,2.0902716)">
    <g
       aria-label="RundesBalli"
       transform="matrix(0.26458333,0,0,0.26458333,0.82682291,-2.778125)"
       id="text5509"
       style="font-size:53.3333px;line-height:1.25;white-space:pre;shape-inside:url(#rect5511)">
      <path
         d="m 35.276646,51.723302 q -2.133332,0 -3.679997,-1.706666 -1.493333,-1.706666 -2.613332,-4.373331 -1.12,-2.666665 -1.973332,-5.49333 -1.973333,-6.453329 -1.653333,-7.679995 -3.146664,4.213331 -5.439996,7.039996 -2.293332,2.773331 -3.733332,4.159997 -6.2933291,6.079996 -12.7466586,6.079996 -1.9199989,0 -3.14666482,-0.799999 -1.27999927,-0.8 -1.27999927,-2.666665 0,-1.173333 0.5333331,-2.506665 0.533333,-1.386666 1.33333249,-2.613332 0.7999995,-1.226666 1.599999,-2.026666 1.759999,-1.759998 2.9333316,-1.759998 0.2133332,0 0.2133332,0.106666 0,0.266667 -0.7999995,0.906666 -1.8666656,1.493333 -3.0933315,3.466665 -1.22666591,1.919999 -1.22666591,3.519998 0,2.986665 4.21333081,2.826665 6.8799954,-0.266667 19.0933224,-16.63999 0.693332,-0.906666 1.173332,-1.28 l -0.853333,-0.319999 q -0.693333,0.266666 -1.119999,0.266666 -1.119999,0 -1.119999,-0.906666 0,-1.226666 1.653332,-1.599999 1.013333,-0.266667 2.613332,0.906666 2.079999,-2.346665 3.999997,-4.479997 1.973333,-2.133332 3.573332,-3.466665 1.599999,-1.386666 2.559998,-1.386666 1.279999,0 1.279999,1.173333 0,0.48 -0.266666,1.013333 -0.213333,0.479999 -0.533333,0.479999 -0.32,0.05333 -0.32,-0.319999 0,-0.266667 0.32,-0.64 v -0.213333 q 0,-0.32 -0.213333,-0.48 -1.386666,-0.906666 -8.533329,9.013328 0.586667,0.05333 1.226666,0.106667 0.693333,0 1.439999,0 12.373326,0 15.466658,-6.399997 0.64,-1.386665 0.64,-2.559998 0,-2.346665 -2.186666,-4.106664 -1.973332,-1.599999 -5.226663,-2.133332 -3.199998,-0.586667 -6.399997,-0.586667 -7.093329,0 -15.093324,3.893331 -9.7066608,4.746664 -9.7066608,11.14666 0,2.079999 2.7199988,2.079999 2.506665,0 5.65333,-2.026665 2.719998,-1.813333 3.733331,-3.679998 0.373333,-0.693333 0.693333,-0.693333 0.373333,0 0.213333,0.426666 -1.013333,2.986665 -4.533331,5.119997 -3.413331,2.079999 -7.0399957,2.079999 -4.3199974,0 -3.9999976,-2.773332 0.7999995,-6.986662 8.5866613,-11.893326 7.733329,-4.85333 18.666656,-4.85333 4.159997,0 8.053328,0.746666 3.946665,0.746666 6.399997,2.773332 2.559998,2.133332 2.559998,5.01333 0,1.226666 -0.586666,2.666665 -0.906666,2.079999 -2.773332,3.573331 -1.866666,1.439999 -4.319997,2.346666 -2.453332,0.906666 -5.173331,1.333332 -2.719998,0.426666 -5.279997,0.426666 -1.386665,0 -2.666665,-0.106666 -1.226666,-0.106667 -2.293332,-0.32 0.32,1.013333 1.12,3.679998 0.799999,2.666665 2.026665,6.933329 0.373333,1.173333 1.013333,2.559999 0.693333,1.386665 1.546666,2.613331 0.853333,1.226666 1.813332,2.026666 1.013333,0.799999 2.026665,0.799999 2.239999,0 3.733332,-4.53333 0.266666,-1.066666 0.586666,-1.066666 0.266666,0 0.48,1.013332 0.05333,0.16 0.05333,0.426667 0,1.386666 -1.493333,3.413331 -1.973332,2.933332 -4.426664,2.933332 z"
         style="font-family:'Alex Brush';-inkscape-font-specification:'Alex Brush';fill:#fff8f0;fill-opacity:1"
         id="path19411" />
    </g>
  </g>
</svg>
